<?xml version="1.0" encoding="UTF-8" standalone="no"?>
<svg
   width="100"
   height="100"
   viewBox="0 0 26.458333 26.458334"
   version="1.1"
   id="svg9818"
   inkscape:version="1.1.2 (0a00cf5339, 2022-02-04)"
   sodipodi:docname="Puntosverdes opcion 2.svg"
   xmlns:inkscape="http://www.inkscape.org/namespaces/inkscape"
   xmlns:sodipodi="http://sodipodi.sourceforge.net/DTD/sodipodi-0.dtd"
   xmlns="http://www.w3.org/2000/svg"
   xmlns:svg="http://www.w3.org/2000/svg"
   xmlns:rdf="http://www.w3.org/1999/02/22-rdf-syntax-ns#"
   xmlns:cc="http://creativecommons.org/ns#"
   xmlns:dc="http://purl.org/dc/elements/1.1/">
  <defs
     id="defs9812" />
  <sodipodi:namedview
     id="base"
     pagecolor="#ffffff"
     bordercolor="#666666"
     borderopacity="1.0"
     inkscape:pageopacity="0.0"
     inkscape:pageshadow="2"
     inkscape:zoom="5.6"
     inkscape:cx="4.1071428"
     inkscape:cy="49.196428"
     inkscape:document-units="mm"
     inkscape:current-layer="layer1"
     showgrid="false"
     units="px"
     inkscape:window-width="1850"
     inkscape:window-height="1016"
     inkscape:window-x="0"
     inkscape:window-y="0"
     inkscape:window-maximized="1"
     inkscape:document-rotation="0"
     inkscape:pagecheckerboard="0" />
  <metadata
     id="metadata9815">
    <rdf:RDF>
      <cc:Work
         rdf:about="">
        <dc:format>image/svg+xml</dc:format>
        <dc:type
           rdf:resource="http://purl.org/dc/dcmitype/StillImage" />
      </cc:Work>
    </rdf:RDF>
  </metadata>
  <g
     inkscape:label="Capa 1"
     inkscape:groupmode="layer"
     id="layer1"
     transform="translate(0,-270.54165)">
    <path
       inkscape:connector-curvature="0"
       id="path332"
       style="fill:#36adb2;fill-opacity:1;fill-rule:nonzero;stroke:none;stroke-width:0.0567655"
       d="m 21.534539,279.95191 c 0,-4.58723 -3.720419,-8.30537 -8.304808,-8.30537 v 3.83338 c 2.468735,0 4.470858,2.00155 4.470858,4.47199 0,2.46874 -2.002123,4.47313 -4.470858,4.47313 v 3.83111 7.63895 c 0,0 3.919096,-6.26522 5.396706,-8.37463 3.282752,-4.68713 2.908102,-7.56856 2.908102,-7.56856" />
    <path
       inkscape:connector-curvature="0"
       id="path334"
       style="fill:#bee144;fill-opacity:1;fill-rule:nonzero;stroke:none;stroke-width:0.0567655"
       d="m 13.229731,275.47992 v -3.83338 c -4.587226,0 -8.3059411,3.71814 -8.3059411,8.30537 0,0 -0.3746536,2.88143 2.9086703,7.56856 1.4781742,2.10941 5.3972708,8.37463 5.3972708,8.37463 v -7.63895 -3.83111 c -2.469303,0 -4.4719911,-2.00439 -4.4719911,-4.47313 0,-2.47044 2.0026881,-4.47199 4.4719911,-4.47199" />
    <circle
       r="6.7568326"
       cy="280.47488"
       cx="13.229167"
       id="path977-6"
       style="vector-effect:none;fill:#ffffff;fill-opacity:1;stroke:none;stroke-width:0.455574;stroke-linecap:butt;stroke-linejoin:miter;stroke-miterlimit:4;stroke-dasharray:none;stroke-dashoffset:0;stroke-opacity:1" />
    <g
       id="g5966"
       transform="matrix(1.0720451,0,0,1.0720451,-0.89215404,-20.081003)">
      <g
         id="g4909"
         transform="matrix(0.020588,0,0,-0.020588,8.7673417,278.59771)">
        <path
           d="m 0,0 c 5.892,0 9.61,1.196 11.158,3.589 1.546,2.394 2.319,7.579 2.319,15.557 0,7.977 -0.773,13.163 -2.319,15.556 C 9.61,37.095 5.892,38.292 0,38.292 H -4.419 V 0 Z m -38,-69.803 c -4.714,0 -7.071,2.127 -7.071,6.382 V 65.016 c 0,4.255 2.357,6.382 7.071,6.382 H 0 c 20.474,0 34.724,-3.656 42.751,-10.969 8.028,-7.313 12.042,-21.074 12.042,-41.283 0,-19.944 -4.051,-33.572 -12.152,-40.885 C 34.54,-29.051 20.326,-32.708 0,-32.708 h -4.419 v -30.713 c 0,-4.255 -2.356,-6.382 -7.07,-6.382 z"
           style="fill:#36adb2;fill-opacity:1;fill-rule:nonzero;stroke:none"
           id="path4911" />
      </g>
      <g
         id="g4913"
         transform="matrix(0.020588,0,0,-0.020588,10.404813,279.87468)">
        <path
           d="m 0,0 c -7.954,6.515 -11.931,17.285 -11.931,32.309 v 94.732 c 0,4.255 2.357,6.382 7.07,6.382 h 26.513 c 4.713,0 7.07,-2.127 7.07,-6.382 V 37.494 c 0,-5.185 0.662,-8.775 1.988,-10.769 1.327,-1.995 3.756,-2.992 7.291,-2.992 3.536,0 5.966,0.997 7.291,2.992 1.326,1.994 1.988,5.584 1.988,10.769 v 89.547 c 0,4.255 2.358,6.382 7.07,6.382 h 26.513 c 4.714,0 7.07,-2.127 7.07,-6.382 V 32.309 C 87.933,17.285 83.956,6.515 76.002,0 68.049,-6.515 55.381,-9.772 38.001,-9.772 20.621,-9.772 7.954,-6.515 0,0"
           style="fill:#36adb2;fill-opacity:1;fill-rule:nonzero;stroke:none"
           id="path4915" />
      </g>
      <g
         id="g4917"
         transform="matrix(0.020588,0,0,-0.020588,14.671384,279.90342)">
        <path
           d="m 0,0 c 0,-4.255 -2.357,-6.382 -7.071,-6.382 h -22.757 c -4.712,0 -7.879,1.795 -9.5,5.385 l -25.186,56.44 V 0 c 0,-4.255 -2.357,-6.382 -7.07,-6.382 h -25.187 c -4.713,0 -7.07,2.127 -7.07,6.382 v 128.437 c 0,4.255 2.357,6.382 7.07,6.382 h 22.756 c 4.714,0 7.881,-1.795 9.501,-5.385 l 25.186,-56.44 v 55.443 c 0,4.255 2.357,6.382 7.071,6.382 h 25.186 c 4.714,0 7.071,-2.127 7.071,-6.382 z"
           style="fill:#36adb2;fill-opacity:1;fill-rule:nonzero;stroke:none"
           id="path4919" />
      </g>
      <g
         id="g4921"
         transform="matrix(0.020588,0,0,-0.020588,14.907846,277.25916)">
        <path
           d="m 0,0 c 0,4.255 2.356,6.382 7.07,6.382 h 71.583 c 4.714,0 7.071,-2.127 7.071,-6.382 v -20.741 c 0,-4.255 -2.357,-6.383 -7.071,-6.383 H 63.188 v -101.313 c 0,-4.255 -2.356,-6.382 -7.07,-6.382 H 29.606 c -4.713,0 -7.071,2.127 -7.071,6.382 V -27.124 H 7.07 c -4.714,0 -7.07,2.128 -7.07,6.383 z"
           style="fill:#36adb2;fill-opacity:1;fill-rule:nonzero;stroke:none"
           id="path4923" />
      </g>
      <g
         id="g4925"
         transform="matrix(0.020588,0,0,-0.020588,18.005515,279.345)">
        <path
           d="M 0,0 C 1.473,1.861 2.504,5.518 3.094,10.969 3.683,16.42 3.978,25.129 3.978,37.095 3.978,49.061 3.683,57.77 3.094,63.221 2.504,68.672 1.473,72.329 0,74.19 c -1.473,1.861 -3.756,2.792 -6.849,2.792 -3.093,0 -5.376,-0.931 -6.849,-2.792 -1.474,-1.861 -2.504,-5.518 -3.093,-10.969 -0.589,-5.451 -0.884,-14.16 -0.884,-26.126 0,-11.966 0.295,-20.675 0.884,-26.126 0.589,-5.451 1.619,-9.108 3.093,-10.969 1.473,-1.862 3.756,-2.792 6.849,-2.792 3.093,0 5.376,0.93 6.849,2.792 m 16.128,106.698 c 6.04,-1.994 11.379,-5.617 16.018,-10.869 4.64,-5.252 7.991,-12.664 10.053,-22.237 2.062,-9.573 3.093,-21.738 3.093,-36.497 0,-14.759 -1.031,-26.924 -3.093,-36.497 C 40.137,-8.975 36.786,-16.387 32.146,-21.639 27.507,-26.891 22.168,-30.514 16.128,-32.508 10.09,-34.503 2.43,-35.5 -6.849,-35.5 c -9.28,0 -16.939,0.997 -22.978,2.992 -6.038,1.994 -11.378,5.617 -16.018,10.869 -4.639,5.252 -7.991,12.664 -10.052,22.237 -2.063,9.573 -3.093,21.738 -3.093,36.497 0,14.759 1.03,26.924 3.093,36.497 2.061,9.573 5.413,16.985 10.052,22.237 4.64,5.252 9.98,8.875 16.018,10.869 6.039,1.995 13.698,2.992 22.978,2.992 9.279,0 16.939,-0.997 22.977,-2.992"
           style="fill:#36adb2;fill-opacity:1;fill-rule:nonzero;stroke:none"
           id="path4927" />
      </g>
      <g
         id="g4929"
         transform="matrix(0.020588,0,0,-0.020588,8.1682905,280.26309)">
        <path
           d="m 0,0 0.026,-0.451 c 0.301,0.017 0.442,0.176 0.425,0.476 4.007,0.229 6.516,-2.293 7.521,-7.565 -0.628,-1.343 -0.884,-3.018 -0.769,-5.021 6.106,-13.63 10.895,-28.844 14.368,-45.639 l -0.451,-0.026 c 0.739,-2.371 1.575,-7.353 2.511,-14.94 l -0.541,-1.087 c 0.023,-0.402 0.234,-0.59 0.636,-0.567 l -0.447,-2.741 c 0.097,-1.705 0.4,-3.498 0.91,-5.378 -0.609,-3.455 -0.897,-5.432 -0.868,-5.932 0.988,-10.302 1.67,-18.71 2.042,-25.225 3.202,-19.124 8.084,-35.087 14.648,-47.884 0.902,0.051 1.775,12.922 2.624,38.613 1.357,14.958 2.41,24.724 3.156,29.292 -0.023,0.399 -0.185,0.592 -0.485,0.575 -0.338,5.913 3.125,27.179 10.388,63.794 1.492,3.804 3.134,6.764 4.924,8.879 l 1.087,-0.542 c -0.035,0.602 0.484,1.183 1.56,1.748 l 2.13,-0.331 3.132,0.632 c 1.743,-0.605 2.685,-1.257 2.826,-1.951 -1.917,-10.468 -2.738,-18.106 -2.464,-22.917 l 0.215,-3.758 c 0.017,-0.302 -0.125,-0.46 -0.426,-0.477 l 2.38,-4.692 0.068,-1.202 c 0.018,-0.301 -0.176,-0.463 -0.575,-0.486 l 1.391,-3.239 c -0.367,-0.624 -0.527,-1.338 -0.481,-2.139 0.5,0.029 1.084,-0.492 1.748,-1.56 l 0.026,-0.45 c 0.023,-0.402 -0.168,-0.614 -0.567,-0.636 2.836,-5.672 4.347,-10.111 4.53,-13.318 l -0.271,-3.182 c 1.855,-7.84 2.937,-14.464 3.246,-19.877 l 0.643,-11.276 c 0.103,-1.804 -0.389,-2.888 -1.474,-3.251 l 0.67,-1.169 c -0.201,-3.533 -2.486,-13.717 -6.855,-30.558 -1.87,-4.232 -3.755,-12.635 -5.651,-25.211 -2.483,-12.914 -3.553,-22.327 -3.216,-28.24 0.086,-1.504 0.539,-3.287 1.361,-5.352 -0.367,-0.625 -0.526,-1.338 -0.481,-2.139 l 0.73,-2.222 c -1.083,-2.173 -3.879,-3.388 -8.39,-3.646 0.029,-0.503 -1.744,-1.155 -5.318,-1.962 -1.804,-0.103 -2.726,0.195 -2.766,0.898 -1.163,-0.771 -2.247,-1.184 -3.248,-1.241 -10.726,-0.612 -17.906,2.749 -21.541,10.084 -8.225,10.189 -18.553,36.097 -30.982,77.724 -1.667,4.53 -4.046,14.5 -7.136,29.912 l 0.602,0.034 c -0.834,2.265 -1.795,9.401 -2.881,21.406 l 0.601,0.034 -0.661,1.018 0.481,2.139 c -0.022,0.4 -0.236,0.591 -0.635,0.568 0.472,23.456 1.546,39.004 3.222,46.641 4.391,16.44 8.242,24.756 11.549,24.944 z"
           style="fill:#bee144;fill-opacity:1;fill-rule:nonzero;stroke:none"
           id="path4931" />
      </g>
      <g
         id="g4933"
         transform="matrix(0.020588,0,0,-0.020588,11.831004,280.17839)">
        <path
           d="m 0,0 0.035,-0.602 c 0.777,0.446 1.368,0.682 1.769,0.705 6.431,0.065 9.686,-0.555 9.76,-1.857 l 0.035,-0.601 c 0.153,-2.707 -4.018,-7.168 -12.511,-13.384 -3.119,-3.496 -13.681,-8.725 -31.687,-15.685 -4.274,-2.657 -6.363,-4.789 -6.272,-6.391 -0.231,-17.11 -0.65,-27.391 -1.257,-30.843 0.023,-0.401 0.233,-0.59 0.635,-0.567 -1.074,-7.603 -1.626,-12.061 -1.651,-13.368 0.023,-0.401 0.234,-0.59 0.636,-0.567 -0.825,-6.684 -1.175,-11.13 -1.049,-13.334 l 0.601,0.035 c 11.329,5.873 23.208,9.167 35.638,9.876 l 4.811,0.275 c 4.811,0.274 7.263,-0.392 7.354,-1.994 0.149,-2.608 -5.499,-9.364 -16.944,-20.274 -17.798,-8.859 -29.07,-15.738 -33.818,-20.633 -1.135,-8.312 -4.063,-23.965 -8.785,-46.959 0.075,-1.304 -0.07,-2.319 -0.43,-3.041 l 1.237,-0.534 c 14.938,6.08 33.153,11.142 54.643,15.184 1.602,0.092 2.984,0.571 4.141,1.443 0.4,0.023 0.613,-0.168 0.635,-0.567 l 2.974,0.773 3.608,0.206 c 0.601,0.035 1.237,-0.533 1.907,-1.701 -8.159,-8.611 -14.006,-15.381 -17.546,-20.308 -6.566,-4.801 -18.898,-10.732 -36.996,-17.798 -17.568,-5.829 -28.988,-10.1 -34.264,-12.815 l -11.426,-0.652 c -2.887,1.243 -4.835,7.166 -5.84,17.768 l -0.172,3.007 c -0.446,7.818 4.036,35.022 13.445,81.616 5.353,33.087 10.429,56.907 15.232,71.462 l -0.24,4.209 c -2.132,2.089 -3.202,3.235 -3.213,3.437 l -0.035,0.602 c 2.154,4.546 4.366,8.092 6.634,10.635 -0.389,6.815 16.284,14.202 50.021,22.16 C -5.279,-0.905 -2.483,-0.545 0,0"
           style="fill:#bee144;fill-opacity:1;fill-rule:nonzero;stroke:none"
           id="path4935" />
      </g>
      <g
         id="g4937"
         transform="matrix(0.020588,0,0,-0.020588,12.887104,281.43486)">
        <path
           d="M 0,0 4.155,-30.534 3.764,-31.612 C 4.1,-32.196 4.278,-32.69 4.301,-33.09 l -0.451,-0.026 0.511,-1.027 0.077,-1.353 c 0.298,-5.212 0.848,-8.7 1.653,-10.464 l -0.439,-2.891 0.206,-3.608 1.053,0.06 c 1.638,3.009 2.601,6.382 2.892,10.12 3.406,0.194 8.963,12.979 16.667,38.359 3.7,16.2 5.215,30.212 4.54,42.041 -0.28,4.91 -0.835,9.354 -1.665,13.329 L 28.292,51.39 C 20.05,47.802 13.766,41.61 9.441,32.818 5.331,25.543 2.306,15.114 0.365,1.529 0.064,1.512 -0.057,1 0,0 M 22.886,69.484 C 28.426,69.296 35.875,66.553 45.227,61.256 52.303,58.843 56.139,52.425 56.733,42.001 57.517,28.268 56.446,17.95 53.521,11.047 52.05,6.839 50.878,0.941 50.006,-6.651 49.404,-6.685 49.149,-7.505 49.241,-9.107 l 0.596,-2.531 c -1.098,-3.683 -2.554,-7.235 -4.37,-10.657 0.064,-1.104 -1.393,-4.656 -4.369,-10.657 0.109,-1.905 -2.908,-7.206 -9.048,-15.902 0.057,-1.003 -1.94,-3.933 -5.985,-8.788 0.246,-4.311 8.343,-14.962 24.297,-31.949 5.588,-6.319 12.042,-9.269 19.36,-8.851 l 1.504,0.086 4.188,3.255 1.138,-1.443 c 0.029,-0.503 -2.928,-4.19 -8.872,-11.065 -3.486,-4.12 -7.483,-6.309 -11.993,-6.567 l -1.504,-0.086 c -4.311,-0.245 -10.699,1.552 -19.163,5.393 -9.261,7.214 -15.603,13.49 -19.023,18.826 -4.786,8.072 -7.268,13.712 -7.452,16.921 l -1.954,-0.111 c -0.7,-5.371 -1.35,-8.072 -1.951,-8.106 0.017,-0.301 0.196,-0.795 0.536,-1.477 -0.45,-4.453 -0.529,-9.232 -0.238,-14.344 l 0.035,-0.601 c -1.104,-0.063 -1.453,-8.028 -1.051,-23.893 0.017,-0.301 0.177,-0.442 0.477,-0.425 l -0.253,-3.484 0.763,-13.381 C 5,-140.548 0.341,-143.48 -9.07,-147.736 l -0.451,-0.026 -1.138,1.444 c -0.018,0.301 0.174,0.463 0.575,0.485 -0.793,1.562 -1.258,3.549 -1.395,5.955 l 0.451,0.025 c -0.335,0.584 -0.514,1.076 -0.537,1.478 -0.029,0.5 0.01,2.463 0.117,5.889 -0.023,0.4 -0.185,0.593 -0.486,0.576 l 0.314,2.431 c -0.417,7.315 -3.619,22.872 -9.6,46.665 -3.388,18.813 -5.162,29.67 -5.328,32.579 l -0.789,13.832 c -0.731,12.829 0.232,27.666 2.892,44.511 -0.018,0.301 -0.177,0.443 -0.477,0.426 l 0.314,2.431 c -1.161,20.347 1.232,36.573 7.178,48.678 -0.051,0.902 1.224,2.332 3.828,4.291 l 1.955,0.111 c 0.3,0.017 0.462,-0.176 0.485,-0.575 0.579,0.433 1.068,0.664 1.469,0.687 3.816,-1.694 7.087,-3.518 9.815,-5.474 8.158,6.8 15.747,10.401 22.764,10.801"
           style="fill:#bee144;fill-opacity:1;fill-rule:nonzero;stroke:none"
           id="path4939" />
      </g>
      <g
         id="g4941"
         transform="matrix(0.020588,0,0,-0.020588,15.195224,280.35915)">
        <path
           d="M 0,0 C -0.51,-1.639 -1.066,-2.474 -1.667,-2.508 1.75,-20.112 3.868,-36.082 4.685,-50.415 4.324,-51.14 4.17,-51.952 4.221,-52.854 c 0.44,-0.68 0.687,-1.469 0.738,-2.372 0.024,-0.401 -0.167,-0.612 -0.566,-0.635 l 0.807,-3.574 -0.362,-4.244 0.67,-1.169 C 4.915,-66.793 4.324,-74.067 3.736,-86.67 l 0.671,-1.168 c -2.443,-13.616 -3.337,-26.135 -2.685,-37.561 -0.402,-0.023 -0.59,-0.237 -0.567,-0.636 0.023,-0.402 0.234,-0.59 0.636,-0.567 l -0.43,-3.041 0.446,-7.818 1.203,0.068 c 9.111,14.798 16.3,33.309 21.57,55.532 0.304,5.245 0.756,7.887 1.357,7.922 -0.022,0.399 -0.235,0.589 -0.635,0.566 0.746,8.087 0.958,14.936 0.638,20.551 -0.177,3.106 -0.808,7.093 -1.889,11.959 l 0.601,0.034 C 20.919,-24.751 15.847,-13.376 9.433,-6.702 5.249,-2.114 2.104,0.12 0,0 m -30.841,22.375 1.202,0.068 c 7.718,0.441 13.977,-0.008 18.782,-1.341 0.399,0.022 0.589,0.233 0.566,0.635 10.096,-0.732 24.742,-7.137 43.935,-19.215 6.073,-5.988 10.396,-14.792 12.97,-26.411 2.374,-13.44 3.749,-23.418 4.121,-29.932 -0.002,-7.04 0.05,-11.461 0.153,-13.265 l 0.67,-1.169 c -0.98,-3.977 -2.018,-10.474 -3.112,-19.484 -8.617,-28.751 -18.042,-50.406 -28.272,-64.966 -9.578,-11.91 -15.463,-18.077 -17.649,-18.503 -1.541,-1.196 -2.773,-4.283 -3.695,-9.261 -3.32,-7.03 -7.336,-10.676 -12.046,-10.945 l -1.203,-0.068 c 0.091,-1.605 -1.065,-2.474 -3.471,-2.611 l -8.42,-0.481 c -6.014,-0.343 -9.524,8.304 -10.53,25.947 l 0.601,0.034 c -0.023,0.4 -0.236,0.591 -0.636,0.568 -0.979,10.099 -1.601,17.504 -1.87,22.217 l -0.172,3.007 -0.772,2.973 0.601,0.034 -0.67,1.169 -0.034,0.601 c -0.023,0.399 0.165,0.613 0.567,0.635 l -0.67,1.169 -1.647,28.867 c -1.018,17.84 2.914,47.628 11.796,89.366 0.982,2.168 3.509,10.758 7.581,25.773 L -22.2,8.388 c -3.075,1.031 -7.921,1.358 -14.536,0.98 l -4.21,-0.24 c -0.402,-0.023 -0.613,0.165 -0.636,0.567 l -1.168,-0.67 c -0.503,-0.028 -1.561,0.915 -3.179,2.836 -0.217,3.808 4.435,6.889 13.954,9.243 0.053,0.806 0.431,1.231 1.134,1.271"
           style="fill:#bee144;fill-opacity:1;fill-rule:nonzero;stroke:none"
           id="path4943" />
      </g>
      <g
         id="g4945"
         transform="matrix(0.020588,0,0,-0.020588,18.173458,279.81661)">
        <path
           d="m 0,0 0.035,-0.602 c 0.778,0.446 1.367,0.682 1.77,0.705 6.429,0.065 9.685,-0.555 9.759,-1.857 l 0.035,-0.601 c 0.154,-2.707 -4.018,-7.168 -12.511,-13.384 -3.119,-3.496 -13.681,-8.725 -31.687,-15.685 -4.274,-2.657 -6.363,-4.789 -6.272,-6.391 -0.231,-17.11 -0.65,-27.391 -1.257,-30.843 0.023,-0.401 0.233,-0.59 0.636,-0.567 -1.074,-7.603 -1.627,-12.061 -1.652,-13.368 0.023,-0.401 0.235,-0.59 0.636,-0.567 -0.825,-6.684 -1.175,-11.13 -1.05,-13.334 l 0.602,0.035 c 11.329,5.873 23.208,9.167 35.638,9.876 l 4.811,0.275 c 4.812,0.274 7.263,-0.392 7.355,-1.994 0.148,-2.608 -5.5,-9.364 -16.945,-20.274 -17.799,-8.859 -29.069,-15.738 -33.817,-20.633 -1.137,-8.312 -4.064,-23.965 -8.785,-46.959 0.074,-1.304 -0.072,-2.319 -0.43,-3.041 l 1.236,-0.534 c 14.938,6.08 33.153,11.142 54.643,15.184 1.602,0.092 2.984,0.571 4.142,1.443 0.399,0.023 0.612,-0.167 0.635,-0.567 l 2.973,0.773 3.608,0.206 c 0.601,0.035 1.237,-0.533 1.907,-1.701 -8.159,-8.611 -14.006,-15.381 -17.545,-20.308 -6.567,-4.801 -18.899,-10.732 -36.996,-17.798 -17.569,-5.829 -28.989,-10.1 -34.264,-12.815 l -11.427,-0.652 c -2.887,1.243 -4.835,7.166 -5.84,17.768 l -0.172,3.007 c -0.446,7.818 4.037,35.022 13.446,81.616 5.352,33.087 10.429,56.907 15.231,71.462 l -0.24,4.209 c -2.133,2.089 -3.202,3.235 -3.213,3.437 l -0.034,0.602 c 2.153,4.546 4.364,8.092 6.633,10.635 -0.389,6.815 16.284,14.202 50.021,22.16 C -5.279,-0.905 -2.483,-0.545 0,0"
           style="fill:#bee144;fill-opacity:1;fill-rule:nonzero;stroke:none"
           id="path4947" />
      </g>
    </g>
  </g>
</svg>
