<?xml version="1.0" encoding="UTF-8" standalone="no"?>
<svg
   width="100"
   height="100"
   viewBox="0 0 26.458333 26.458334"
   version="1.1"
   id="svg9818"
   inkscape:version="1.1.2 (0a00cf5339, 2022-02-04)"
   sodipodi:docname="Puntosverdes.svg"
   xmlns:inkscape="http://www.inkscape.org/namespaces/inkscape"
   xmlns:sodipodi="http://sodipodi.sourceforge.net/DTD/sodipodi-0.dtd"
   xmlns="http://www.w3.org/2000/svg"
   xmlns:svg="http://www.w3.org/2000/svg"
   xmlns:rdf="http://www.w3.org/1999/02/22-rdf-syntax-ns#"
   xmlns:cc="http://creativecommons.org/ns#"
   xmlns:dc="http://purl.org/dc/elements/1.1/">
  <defs
     id="defs9812" />
  <sodipodi:namedview
     id="base"
     pagecolor="#ffffff"
     bordercolor="#666666"
     borderopacity="1.0"
     inkscape:pageopacity="0.0"
     inkscape:pageshadow="2"
     inkscape:zoom="5.6"
     inkscape:cx="3.5714285"
     inkscape:cy="49.196428"
     inkscape:document-units="mm"
     inkscape:current-layer="layer1"
     showgrid="false"
     units="px"
     inkscape:window-width="1850"
     inkscape:window-height="1016"
     inkscape:window-x="0"
     inkscape:window-y="0"
     inkscape:window-maximized="1"
     inkscape:document-rotation="0"
     inkscape:pagecheckerboard="0" />
  <metadata
     id="metadata9815">
    <rdf:RDF>
      <cc:Work
         rdf:about="">
        <dc:format>image/svg+xml</dc:format>
        <dc:type
           rdf:resource="http://purl.org/dc/dcmitype/StillImage" />
      </cc:Work>
    </rdf:RDF>
  </metadata>
  <g
     inkscape:label="Capa 1"
     inkscape:groupmode="layer"
     id="layer1"
     transform="translate(0,-270.54165)">
    <path
       inkscape:connector-curvature="0"
       id="path332"
       style="fill:#255889;fill-opacity:1;fill-rule:nonzero;stroke:none;stroke-width:0.0567655"
       d="m 21.534539,279.95191 c 0,-4.58723 -3.720419,-8.30537 -8.304808,-8.30537 v 3.83338 c 2.468735,0 4.470858,2.00155 4.470858,4.47199 0,2.46874 -2.002123,4.47313 -4.470858,4.47313 v 3.83111 7.63895 c 0,0 3.919096,-6.26522 5.396706,-8.37463 3.282752,-4.68713 2.908102,-7.56856 2.908102,-7.56856" />
    <path
       inkscape:connector-curvature="0"
       id="path334"
       style="fill:#369d95;fill-opacity:1;fill-rule:nonzero;stroke:none;stroke-width:0.0567655"
       d="m 13.229731,275.47992 v -3.83338 c -4.587226,0 -8.3059411,3.71814 -8.3059411,8.30537 0,0 -0.3746536,2.88143 2.9086703,7.56856 1.4781742,2.10941 5.3972708,8.37463 5.3972708,8.37463 v -7.63895 -3.83111 c -2.469303,0 -4.4719911,-2.00439 -4.4719911,-4.47313 0,-2.47044 2.0026881,-4.47199 4.4719911,-4.47199" />
    <circle
       r="6.7568326"
       cy="280.47488"
       cx="13.229167"
       id="path977-6"
       style="vector-effect:none;fill:#ffffff;fill-opacity:1;stroke:none;stroke-width:0.455574;stroke-linecap:butt;stroke-linejoin:miter;stroke-miterlimit:4;stroke-dasharray:none;stroke-dashoffset:0;stroke-opacity:1" />
    <g
       id="g301"
       transform="matrix(0.02932428,0,0,-0.02932428,4.1834804,293.01953)">
      <path
         inkscape:connector-curvature="0"
         id="path3401"
         style="fill:#369d95;fill-opacity:1;fill-rule:nonzero;stroke:none"
         d="m 411.043,566.133 c -0.234,-0.613 -0.477,-1.223 -0.723,-1.824 -1.652,-4.039 0.282,-8.661 4.325,-10.313 0.98,-0.402 1.996,-0.594 2.996,-0.594 3.113,0 6.07,1.856 7.32,4.918 0.293,0.711 0.578,1.43 0.855,2.16 1.563,4.079 -0.476,8.649 -4.558,10.211 -4.082,1.563 -8.653,-0.48 -10.215,-4.558" />
      <path
         inkscape:connector-curvature="0"
         id="path3403"
         style="fill:#369d95;fill-opacity:1;fill-rule:nonzero;stroke:none"
         d="m 269.418,532.547 c -12.43,13.254 -15.016,31.43 -15.438,41.289 9.817,-0.395 27.86,-2.945 41.184,-15.383 10.531,-9.824 16.262,-24.234 17.082,-42.902 -18.617,0.816 -33.004,6.519 -42.828,16.996 M 410.27,407.895 c -9.817,0 -19.293,-2.774 -27.454,-7.938 -12.66,17.746 -32.695,28.883 -54.628,30.145 v 69.316 c 18.105,0.105 60.89,4.383 86.402,40.02 2.543,3.546 1.722,8.492 -1.828,11.031 -3.551,2.543 -8.492,1.726 -11.035,-1.828 -21.09,-29.461 -58.165,-33.161 -73.512,-33.36 0.164,13.336 2.949,43.028 22.902,64.344 15.223,16.262 37.676,24.785 66.824,25.383 -0.16,-7.723 -0.875,-15.012 -2.136,-21.758 -0.801,-4.293 2.031,-8.422 6.324,-9.227 4.293,-0.8 8.422,2.028 9.226,6.325 1.875,10.031 2.676,21.047 2.379,32.742 -0.105,4.211 -3.496,7.598 -7.707,7.707 -37.675,0.961 -66.804,-9.297 -86.558,-30.473 -10.52,-11.277 -17.012,-24.211 -20.992,-36.48 -3.329,6.09 -7.5,11.488 -12.52,16.176 -24.273,22.648 -59.078,19.628 -60.551,19.488 -3.777,-0.36 -6.765,-3.348 -7.125,-7.125 -0.14,-1.473 -3.156,-36.27 19.492,-60.543 12.918,-13.848 31.262,-21.27 54.598,-22.125 v -70.434 c -15.223,-2.469 -29.246,-9.746 -40.09,-20.894 v -7.434 h 15.176 c 10.129,8.637 23.008,13.453 36.563,13.453 20.812,0 39.863,-11.402 49.726,-29.75 1.156,-2.156 3.25,-3.656 5.668,-4.058 2.414,-0.403 4.879,0.336 6.672,2 6.598,6.113 15.187,9.48 24.184,9.48 14.843,0 27.597,-9.129 32.949,-22.062 h 16.676 c -5.973,21.804 -25.95,37.879 -49.625,37.879" />
      <path
         inkscape:connector-curvature="0"
         id="path3425"
         style="fill:#255889;fill-opacity:1;fill-rule:nonzero;stroke:none"
         d="m 433.172,321.793 c -93.711,-49.121 -93.711,-49.121 -182.641,-17.965 -13.105,4.613 -28.273,9.891 -45.66,15.742 v 77.805 h 40.633 c 28.844,0 40.465,-11.129 48.051,-18.465 1.812,-1.726 3.379,-3.293 4.945,-4.449 1.398,-1.152 3.215,-1.731 5.027,-1.731 13.352,-0.082 22.172,-0.082 34.618,-0.082 7.746,0 17.144,0.082 29.753,0.082 9.809,0 10.137,-11.125 10.137,-12.363 0.082,-3.215 -0.906,-6.429 -2.801,-9.066 -1.734,-2.227 -4.453,-3.461 -7.336,-3.297 h -88.605 c -4.121,0 -7.828,-2.969 -8.406,-7.004 -0.742,-5.113 3.215,-9.48 8.16,-9.48 h 88.765 c 7.336,-0.165 14.344,2.882 19.208,8.488 0.41,0 0.906,0 1.316,0.086 l 82.422,23.078 c 10.469,2.965 14.176,1.566 24.972,-8.984 -24.808,-12.532 -45.496,-23.411 -62.558,-32.395 M 188.383,306.711 H 138.93 v 107.148 h 49.453 z m 328.777,48.793 c -0.414,0.906 -0.906,1.648 -1.484,2.226 l -1.895,1.895 c -16.402,16.484 -25.469,25.551 -47.312,19.285 l -72.035,-20.191 c 0,0.492 0.086,0.988 0.086,1.566 0,14.34 -9.149,28.848 -26.625,28.848 -12.528,0 -21.676,0 -29.422,-0.086 -11.457,0 -19.782,-0.082 -31.489,0 l -1.726,1.648 c -8.985,8.657 -23.985,23.078 -59.594,23.078 h -40.797 v 8.247 c 0,4.531 -3.707,8.238 -8.242,8.238 h -65.934 c -4.535,0 -8.246,-3.707 -8.246,-8.238 V 298.387 c 0,-4.535 3.711,-8.242 8.246,-8.242 h 65.934 c 4.535,0 8.242,3.707 8.242,8.242 v 3.793 c 15.168,-5.114 28.52,-9.809 40.305,-13.93 42.035,-14.754 65.773,-22.914 87.859,-22.914 27.696,0 52.75,12.859 107.973,41.785 19.285,10.141 43.355,22.668 72.531,37.336 4.035,2.063 5.688,7.008 3.625,11.047" />
    </g>
  </g>
</svg>
