<?xml version="1.0" encoding="UTF-8" standalone="no"?>
<svg
   width="100"
   height="100"
   viewBox="0 0 26.458333 26.458334"
   version="1.1"
   id="svg9818"
   inkscape:version="1.1.2 (0a00cf5339, 2022-02-04)"
   sodipodi:docname="Obrapublica.svg"
   xmlns:inkscape="http://www.inkscape.org/namespaces/inkscape"
   xmlns:sodipodi="http://sodipodi.sourceforge.net/DTD/sodipodi-0.dtd"
   xmlns="http://www.w3.org/2000/svg"
   xmlns:svg="http://www.w3.org/2000/svg"
   xmlns:rdf="http://www.w3.org/1999/02/22-rdf-syntax-ns#"
   xmlns:cc="http://creativecommons.org/ns#"
   xmlns:dc="http://purl.org/dc/elements/1.1/">
  <defs
     id="defs9812" />
  <sodipodi:namedview
     id="base"
     pagecolor="#ffffff"
     bordercolor="#666666"
     borderopacity="1.0"
     inkscape:pageopacity="0.0"
     inkscape:pageshadow="2"
     inkscape:zoom="7.919596"
     inkscape:cx="54.548237"
     inkscape:cy="54.86391"
     inkscape:document-units="mm"
     inkscape:current-layer="layer1"
     showgrid="false"
     units="px"
     inkscape:window-width="1850"
     inkscape:window-height="1016"
     inkscape:window-x="0"
     inkscape:window-y="0"
     inkscape:window-maximized="1"
     inkscape:document-rotation="0"
     inkscape:pagecheckerboard="0" />
  <metadata
     id="metadata9815">
    <rdf:RDF>
      <cc:Work
         rdf:about="">
        <dc:format>image/svg+xml</dc:format>
        <dc:type
           rdf:resource="http://purl.org/dc/dcmitype/StillImage" />
      </cc:Work>
    </rdf:RDF>
  </metadata>
  <g
     inkscape:label="Capa 1"
     inkscape:groupmode="layer"
     id="layer1"
     transform="translate(0,-270.54165)">
    <path
       inkscape:connector-curvature="0"
       id="path332"
       style="fill:#2c5aa0;fill-opacity:1;fill-rule:nonzero;stroke:none;stroke-width:0.0567655"
       d="m 21.534539,279.95191 c 0,-4.58723 -3.720419,-8.30537 -8.304808,-8.30537 v 3.83338 c 2.468735,0 4.470858,2.00155 4.470858,4.47199 0,2.46874 -2.002123,4.47313 -4.470858,4.47313 v 3.83111 7.63895 c 0,0 3.919096,-6.26522 5.396706,-8.37463 3.282752,-4.68713 2.908102,-7.56856 2.908102,-7.56856" />
    <path
       inkscape:connector-curvature="0"
       id="path334"
       style="fill:#5f8dd3;fill-opacity:1;fill-rule:nonzero;stroke:none;stroke-width:0.0567655"
       d="m 13.229731,275.47992 v -3.83338 c -4.587226,0 -8.3059411,3.71814 -8.3059411,8.30537 0,0 -0.3746536,2.88143 2.9086703,7.56856 1.4781742,2.10941 5.3972708,8.37463 5.3972708,8.37463 v -7.63895 -3.83111 c -2.469303,0 -4.4719911,-2.00439 -4.4719911,-4.47313 0,-2.47044 2.0026881,-4.47199 4.4719911,-4.47199" />
    <circle
       r="6.7568326"
       cy="280.47488"
       cx="13.229167"
       id="path977-6"
       style="vector-effect:none;fill:#ffffff;fill-opacity:1;stroke:none;stroke-width:0.455574;stroke-linecap:butt;stroke-linejoin:miter;stroke-miterlimit:4;stroke-dasharray:none;stroke-dashoffset:0;stroke-opacity:1" />
    <g
       id="g180"
       transform="matrix(0.12404715,0,0,-0.12404715,11.772234,275.39134)" />
    <g
       id="g10452"
       transform="matrix(0.90174464,0,0,0.90174464,33.636321,-21.710604)">
      <path
         d="m -22.02323,330.78854 -0.219743,-2.66678 h -0.822364 l -0.219742,2.66678 h 1.261849"
         style="fill:#5f8dd3;fill-opacity:1;fill-rule:nonzero;stroke:none;stroke-width:0.00445726"
         id="path386" />
      <path
         d="m -22.02323,330.78854 -0.219743,-2.66678 h -0.822364 l -0.219742,2.66678 z"
         style="fill:none;stroke:#293d9b;stroke-width:0.344007;stroke-linecap:butt;stroke-linejoin:miter;stroke-miterlimit:10;stroke-dasharray:none;stroke-opacity:1"
         id="path388" />
      <path
         d="m -17.174182,335.15888 c 0,-1.76739 -0.740795,-3.56269 -2.187175,-4.74074 -0.357918,-0.2915 -0.753722,-0.53309 -1.173595,-0.72118 l -0.120346,-0.77646 c -0.556266,-0.25673 -1.081331,-0.38644 -1.557811,-0.43636 l 0.189879,2.3044 h -1.261849 l 0.189879,-2.31153 c -0.954299,0.0851 -1.558257,0.44349 -1.558257,0.44349 l -0.138621,0.77735 c -1.446379,0.66413 -2.496954,1.95005 -2.99171,3.36924 -0.234897,0.6742 -0.35034,1.38317 -0.35034,2.09179 h 10.959946"
         style="fill:none;stroke:#293d9b;stroke-width:0.344007;stroke-linecap:butt;stroke-linejoin:miter;stroke-miterlimit:10;stroke-dasharray:none;stroke-opacity:1"
         id="path390" />
      <path
         d="m -20.655298,328.9205 0.419427,2.70645"
         style="fill:none;stroke:#293d9b;stroke-width:0.344007;stroke-linecap:butt;stroke-linejoin:miter;stroke-miterlimit:10;stroke-dasharray:none;stroke-opacity:1"
         id="path392" />
      <path
         d="m -25.136178,331.62695 0.482721,-2.70645"
         style="fill:none;stroke:#293d9b;stroke-width:0.344007;stroke-linecap:butt;stroke-linejoin:miter;stroke-miterlimit:10;stroke-dasharray:none;stroke-opacity:1"
         id="path394" />
      <path
         d="m -26.005494,332.88994 c 0,0 -0.871681,0.84683 -0.80382,1.4931 h 5.379084"
         style="fill:none;stroke:#293d9b;stroke-width:0.401672;stroke-linecap:butt;stroke-linejoin:miter;stroke-miterlimit:10;stroke-dasharray:none;stroke-opacity:1"
         id="path396" />
      <path
         d="m -17.112226,335.15888 h -11.076281 c 0,0 -0.499212,0.0186 -0.494309,0.78684 h 6.028884 6.028439 c 0.0049,-0.76821 -0.486733,-0.78684 -0.486733,-0.78684 z"
         style="fill:none;stroke:#293d9b;stroke-width:0.344007;stroke-linecap:butt;stroke-linejoin:miter;stroke-miterlimit:10;stroke-dasharray:none;stroke-opacity:1"
         id="path398" />
      <path
         d="m -17.649325,335.94572 h -2.512555 c -0.03878,1.31877 -1.119217,2.37603 -2.447479,2.37603 -1.327817,0 -2.408702,-1.05726 -2.44748,-2.37603 h -2.512555 c 4.42e-4,0.10461 0.0058,0.2086 0.01159,0.31254 l -0.983717,0.25714 0.44528,1.70205 0.961876,-0.25139 c 0.209045,0.46355 0.486732,0.89011 0.820581,1.26541 l -0.598164,0.77467 1.392447,1.07554 0.589695,-0.76397 c 0.443943,0.23623 0.929338,0.40561 1.441031,0.49743 v 0.95875 h 1.758833 v -0.95875 c 0.487624,-0.0869 0.950287,-0.24515 1.376401,-0.46401 l 0.578551,0.772 1.408048,-1.05414 -0.586575,-0.78269 c 0.24916,-0.271 0.466229,-0.57009 0.650759,-0.89145 l 0.928446,0.34231 0.607524,-1.65083 -0.948058,-0.34909 c 0.0419,-0.25839 0.06463,-0.52217 0.06552,-0.79152"
         style="fill:#5f8dd3;fill-opacity:1;fill-rule:nonzero;stroke:none;stroke-width:0.00445726"
         id="path400" />
      <path
         d="m -17.649325,335.94572 h -2.512555 c -0.03878,1.31877 -1.119217,2.37603 -2.447479,2.37603 -1.327817,0 -2.408702,-1.05726 -2.44748,-2.37603 h -2.512555 c 4.42e-4,0.10461 0.0058,0.2086 0.01159,0.31254 l -0.983717,0.25714 0.44528,1.70205 0.961876,-0.25139 c 0.209045,0.46355 0.486732,0.89011 0.820581,1.26541 l -0.598164,0.77467 1.392447,1.07554 0.589695,-0.76397 c 0.443943,0.23623 0.929338,0.40561 1.441031,0.49743 v 0.95875 h 1.758833 v -0.95875 c 0.487624,-0.0869 0.950287,-0.24515 1.376401,-0.46401 l 0.578551,0.772 1.408048,-1.05414 -0.586575,-0.78269 c 0.24916,-0.271 0.466229,-0.57009 0.650759,-0.89145 l 0.928446,0.34231 0.607524,-1.65083 -0.948058,-0.34909 c 0.0419,-0.25839 0.06463,-0.52217 0.06552,-0.79152 z"
         style="fill:none;stroke:#293d9b;stroke-width:0.344007;stroke-linecap:round;stroke-linejoin:round;stroke-miterlimit:10;stroke-dasharray:none;stroke-opacity:1"
         id="path402" />
      <path
         d="m -22.043296,339.49261 c 1.54043,0 2.93332,-1.05816 3.34205,-2.54501"
         style="fill:none;stroke:#293d9b;stroke-width:0.344007;stroke-linecap:butt;stroke-linejoin:miter;stroke-miterlimit:10;stroke-dasharray:none;stroke-opacity:1"
         id="path404" />
    </g>
  </g>
</svg>
